<svg xmlns="http://www.w3.org/2000/svg" viewBox="0 0 87.27 53.99"><path d="M48.33,157.36c-10,2.43-20.91,8.22-27.11,16.6-5.89,8-5.5,18.09,2.72,24.2,7.93,5.9,19.58,6,29,5.52a96,96,0,0,0,29.19-5.83c8.06-3.11,17.3-7.88,21.08-16.16,2.61-5.73,1-11.94-2.59-16.82-9.43-12.62-28.44-17-43.24-14.17A39.51,39.51,0,0,0,32.66,167c-.56.79.74,1.53,1.29.75,11.55-16.31,32.65-20,50.56-12.74,6.86,2.77,13.71,7.48,17,14.27s.38,13.8-5,18.64c-7.8,7.08-18.82,10.53-29,12.47-10.6,2-22,3-32.64.77-4.78-1-9.5-2.94-12.88-6.58C18,190.18,17.66,184,20.06,178.69c4.69-10.31,17.72-17.06,28.17-19.77l.49-.12a.75.75,0,0,0-.39-1.44Z" transform="translate(-17.22 -149.87)"/></svg>